%FSLAX46Y46*%
G04 Gerber Fmt 4.6, Leading zero omitted, Abs format (unit mm)*
G04 Created by KiCad (PCBNEW (2014-10-22 BZR 5214)-product) date Sun 11 Oct 2015 07:22:09 PM EDT*
%MOMM*%
G01*
G04 APERTURE LIST*
%ADD10C,0.200000*%
%ADD11R,2.000000X1.600000*%
%ADD12R,1.250000X1.500000*%
%ADD13R,1.500000X1.250000*%
%ADD14R,0.910000X1.220000*%
%ADD15R,1.727200X1.727200*%
%ADD16O,1.727200X1.727200*%
%ADD17R,1.500000X1.300000*%
%ADD18R,1.300000X1.500000*%
%ADD19R,0.650000X1.060000*%
%ADD20R,1.600000X3.000000*%
%ADD21R,6.700000X6.700000*%
%ADD22C,1.800000*%
%ADD23C,2.540000*%
%ADD24C,4.800600*%
%ADD25R,4.800600X4.800600*%
G04 APERTURE END LIST*
D10*
D11*
X168660000Y-144700000D03*
X172660000Y-144700000D03*
D12*
X168120000Y-132020000D03*
X168120000Y-134520000D03*
D13*
X168090000Y-103710000D03*
X170590000Y-103710000D03*
X171750000Y-126000000D03*
X174250000Y-126000000D03*
D12*
X176000000Y-111250000D03*
X176000000Y-108750000D03*
D11*
X170000000Y-122000000D03*
X174000000Y-122000000D03*
D13*
X156750000Y-141000000D03*
X154250000Y-141000000D03*
X156750000Y-137000000D03*
X154250000Y-137000000D03*
X154250000Y-133000000D03*
X156750000Y-133000000D03*
D14*
X171565000Y-134540000D03*
X174835000Y-134540000D03*
D12*
X168120000Y-138370000D03*
X168120000Y-140870000D03*
X168120000Y-128170000D03*
X168120000Y-125670000D03*
D15*
X183000000Y-132000000D03*
D16*
X185540000Y-132000000D03*
X183000000Y-134540000D03*
X185540000Y-134540000D03*
X183000000Y-137080000D03*
X185540000Y-137080000D03*
X183000000Y-139620000D03*
X185540000Y-139620000D03*
D17*
X162850000Y-141000000D03*
X160150000Y-141000000D03*
X162850000Y-137000000D03*
X160150000Y-137000000D03*
X162850000Y-133000000D03*
X160150000Y-133000000D03*
X171650000Y-130000000D03*
X174350000Y-130000000D03*
D18*
X178000000Y-130650000D03*
X178000000Y-133350000D03*
D19*
X172250000Y-140720000D03*
X173200000Y-140720000D03*
X174150000Y-140720000D03*
X174150000Y-138520000D03*
X172250000Y-138520000D03*
D20*
X171640000Y-108030000D03*
X167040000Y-108030000D03*
D21*
X169340000Y-114680000D03*
D22*
X155500000Y-121000000D03*
X158000000Y-121000000D03*
X160500000Y-121000000D03*
X155500000Y-127000000D03*
X158000000Y-127000000D03*
X160500000Y-127000000D03*
D12*
X176000000Y-114750000D03*
X176000000Y-117250000D03*
D23*
X184000000Y-120500000D03*
X184000000Y-115500000D03*
X184000000Y-110500000D03*
X184000000Y-125500000D03*
D24*
X155100000Y-110950000D03*
D25*
X161196000Y-110950000D03*
D24*
X157386000Y-116030000D03*
M02*
