%FSLAX46Y46*%
G04 Gerber Fmt 4.6, Leading zero omitted, Abs format (unit mm)*
G04 Created by KiCad (PCBNEW (2014-10-22 BZR 5214)-product) date Sat 10 Oct 2015 03:54:35 PM EDT*
%MOMM*%
G01*
G04 APERTURE LIST*
%ADD10C,0.200000*%
%ADD11R,2.000000X1.600000*%
%ADD12R,1.250000X1.500000*%
%ADD13R,1.500000X1.250000*%
%ADD14C,4.800600*%
%ADD15R,4.800600X4.800600*%
%ADD16R,0.910000X1.220000*%
%ADD17R,1.727200X1.727200*%
%ADD18O,1.727200X1.727200*%
%ADD19R,1.500000X1.300000*%
%ADD20R,1.300000X1.500000*%
%ADD21R,0.650000X1.060000*%
%ADD22R,1.600000X3.000000*%
%ADD23R,6.700000X6.700000*%
%ADD24C,2.540000*%
%ADD25C,1.800000*%
%ADD26C,0.889000*%
%ADD27C,0.254000*%
G04 APERTURE END LIST*
D10*
D11*
X168660000Y-144700000D03*
X172660000Y-144700000D03*
D12*
X168120000Y-132020000D03*
X168120000Y-134520000D03*
D13*
X168090000Y-103710000D03*
X170590000Y-103710000D03*
X171750000Y-126000000D03*
X174250000Y-126000000D03*
D12*
X176000000Y-111250000D03*
X176000000Y-108750000D03*
D11*
X170000000Y-122000000D03*
X174000000Y-122000000D03*
D14*
X155000000Y-111000000D03*
D15*
X161096000Y-111000000D03*
D14*
X157286000Y-116080000D03*
D13*
X156750000Y-141000000D03*
X154250000Y-141000000D03*
X156750000Y-137000000D03*
X154250000Y-137000000D03*
X154250000Y-133000000D03*
X156750000Y-133000000D03*
D16*
X171565000Y-134540000D03*
X174835000Y-134540000D03*
D12*
X168120000Y-138370000D03*
X168120000Y-140870000D03*
X168120000Y-128170000D03*
X168120000Y-125670000D03*
D17*
X183000000Y-132000000D03*
D18*
X185540000Y-132000000D03*
X183000000Y-134540000D03*
X185540000Y-134540000D03*
X183000000Y-137080000D03*
X185540000Y-137080000D03*
X183000000Y-139620000D03*
X185540000Y-139620000D03*
D19*
X162850000Y-141000000D03*
X160150000Y-141000000D03*
X162850000Y-137000000D03*
X160150000Y-137000000D03*
X162850000Y-133000000D03*
X160150000Y-133000000D03*
X171650000Y-130000000D03*
X174350000Y-130000000D03*
D20*
X178000000Y-130650000D03*
X178000000Y-133350000D03*
D21*
X172250000Y-140720000D03*
X173200000Y-140720000D03*
X174150000Y-140720000D03*
X174150000Y-138520000D03*
X172250000Y-138520000D03*
D22*
X171640000Y-108030000D03*
X167040000Y-108030000D03*
D23*
X169340000Y-114680000D03*
D24*
X184000000Y-120381250D03*
X184000000Y-115618750D03*
X184000000Y-110856250D03*
X184000000Y-125143750D03*
D25*
X155500000Y-121000000D03*
X158000000Y-121000000D03*
X160500000Y-121000000D03*
X155500000Y-127000000D03*
X158000000Y-127000000D03*
X160500000Y-127000000D03*
D12*
X176000000Y-114750000D03*
X176000000Y-117250000D03*
D26*
X173200000Y-141949200D03*
X178000000Y-134822900D03*
X174647700Y-117316400D03*
X174000000Y-123499800D03*
X171640000Y-110271300D03*
X152761000Y-141054100D03*
X152771300Y-136962400D03*
X173658700Y-134258200D03*
X154250000Y-131666800D03*
X174653700Y-108883000D03*
D27*
X185687600Y-130607500D02*
X185540000Y-130755100D01*
X185687600Y-112543900D02*
X185687600Y-130607500D01*
X184000000Y-110856300D02*
X185687600Y-112543900D01*
X185540000Y-132000000D02*
X185540000Y-130755100D01*
X175847400Y-102703700D02*
X184000000Y-110856300D01*
X168090000Y-102703700D02*
X175847400Y-102703700D01*
X167040000Y-108030000D02*
X165858700Y-108030000D01*
X168090000Y-103206800D02*
X168090000Y-102703700D01*
X168090000Y-103206800D02*
X168090000Y-103710000D01*
X168090000Y-105098700D02*
X167040000Y-106148700D01*
X168090000Y-103710000D02*
X168090000Y-105098700D01*
X167040000Y-108030000D02*
X167040000Y-106148700D01*
X168660000Y-144700000D02*
X167278700Y-144700000D01*
X164237300Y-114762700D02*
X158000000Y-121000000D01*
X164237300Y-109651400D02*
X164237300Y-114762700D01*
X165858700Y-108030000D02*
X164237300Y-109651400D01*
X154183100Y-124816900D02*
X158000000Y-121000000D01*
X154183100Y-128939200D02*
X154183100Y-124816900D01*
X155500000Y-130256100D02*
X154183100Y-128939200D01*
X155500000Y-133677500D02*
X155500000Y-130256100D01*
X157186500Y-135364000D02*
X155500000Y-133677500D01*
X160455100Y-135364000D02*
X157186500Y-135364000D01*
X161281400Y-136190300D02*
X160455100Y-135364000D01*
X161281400Y-138400100D02*
X161281400Y-136190300D01*
X162850000Y-139968700D02*
X161281400Y-138400100D01*
X162850000Y-141000000D02*
X163981300Y-141000000D01*
X162850000Y-141000000D02*
X162850000Y-139968700D01*
X165293300Y-142714600D02*
X165293300Y-141000000D01*
X167278700Y-144700000D02*
X165293300Y-142714600D01*
X165293300Y-141000000D02*
X163981300Y-141000000D01*
X167113700Y-139179600D02*
X167113700Y-138370000D01*
X165293300Y-141000000D02*
X167113700Y-139179600D01*
X172250000Y-137608700D02*
X174150000Y-137608700D01*
X174150000Y-138520000D02*
X174150000Y-137608700D01*
X172250000Y-138520000D02*
X172250000Y-137608700D01*
X168120000Y-138370000D02*
X167240800Y-138370000D01*
X167240800Y-138370000D02*
X167113700Y-138370000D01*
X170172700Y-135531400D02*
X172250000Y-137608700D01*
X170172700Y-134631200D02*
X170172700Y-135531400D01*
X168930100Y-133388600D02*
X170172700Y-134631200D01*
X167333500Y-133388600D02*
X168930100Y-133388600D01*
X167113700Y-133608400D02*
X167333500Y-133388600D01*
X167113700Y-138370000D02*
X167113700Y-133608400D01*
X178000000Y-133350000D02*
X178000000Y-134822900D01*
X176000000Y-117250000D02*
X174993700Y-117250000D01*
X174927300Y-117316400D02*
X174993700Y-117250000D01*
X174647700Y-117316400D02*
X174927300Y-117316400D01*
X174000000Y-123499800D02*
X174000000Y-122000000D01*
X173200000Y-140720000D02*
X173200000Y-141949200D01*
X173200000Y-142978700D02*
X172660000Y-143518700D01*
X173200000Y-141949200D02*
X173200000Y-142978700D01*
X172660000Y-144700000D02*
X172660000Y-143518700D01*
X154250000Y-141000000D02*
X153118700Y-141000000D01*
X153064600Y-141054100D02*
X153118700Y-141000000D01*
X152761000Y-141054100D02*
X153064600Y-141054100D01*
X154250000Y-137000000D02*
X153118700Y-137000000D01*
X153081100Y-136962400D02*
X153118700Y-137000000D01*
X152771300Y-136962400D02*
X153081100Y-136962400D01*
X171640000Y-110271300D02*
X171640000Y-108030000D01*
X170590000Y-105098700D02*
X170590000Y-103710000D01*
X171640000Y-106148700D02*
X170590000Y-105098700D01*
X171640000Y-108030000D02*
X171640000Y-106148700D01*
X174835000Y-134540000D02*
X173998700Y-134540000D01*
X173716900Y-134258200D02*
X173998700Y-134540000D01*
X173658700Y-134258200D02*
X173716900Y-134258200D01*
X154250000Y-131666800D02*
X154250000Y-133000000D01*
X176000000Y-108750000D02*
X174993700Y-108750000D01*
X174860700Y-108883000D02*
X174993700Y-108750000D01*
X174653700Y-108883000D02*
X174860700Y-108883000D01*
X168120000Y-128170000D02*
X168120000Y-132020000D01*
X170728700Y-133622400D02*
X169126300Y-132020000D01*
X170728700Y-134540000D02*
X170728700Y-133622400D01*
X171565000Y-134540000D02*
X170728700Y-134540000D01*
X168120000Y-132020000D02*
X169126300Y-132020000D01*
X172250000Y-140720000D02*
X172250000Y-141631300D01*
X168120000Y-140870000D02*
X168999200Y-140870000D01*
X168120000Y-134520000D02*
X169126300Y-134520000D01*
X169887700Y-141631300D02*
X172250000Y-141631300D01*
X169126300Y-140869900D02*
X169887700Y-141631300D01*
X169126200Y-140870000D02*
X169126300Y-140869900D01*
X168999200Y-140870000D02*
X169126200Y-140870000D01*
X169126300Y-140869900D02*
X169126300Y-134520000D01*
X170000000Y-122000000D02*
X170000000Y-123181300D01*
X183000000Y-139620000D02*
X183000000Y-139335200D01*
X185540000Y-139620000D02*
X184295100Y-139620000D01*
X183000000Y-139335200D02*
X184010300Y-139335200D01*
X184010300Y-139335200D02*
X184295100Y-139620000D01*
X184270000Y-125413800D02*
X184270000Y-135810000D01*
X184000000Y-125143800D02*
X184270000Y-125413800D01*
X184270000Y-139075500D02*
X184010300Y-139335200D01*
X184270000Y-135810000D02*
X184270000Y-139075500D01*
X171750000Y-128868700D02*
X171650000Y-128968700D01*
X171750000Y-126000000D02*
X171750000Y-128868700D01*
X171650000Y-130000000D02*
X171650000Y-128968700D01*
X171750000Y-126000000D02*
X171750000Y-124993700D01*
X175182700Y-124993700D02*
X171750000Y-124993700D01*
X179031300Y-128842300D02*
X175182700Y-124993700D01*
X179031300Y-132366400D02*
X179031300Y-128842300D01*
X182474900Y-135810000D02*
X179031300Y-132366400D01*
X184270000Y-135810000D02*
X182474900Y-135810000D01*
X171750000Y-124931300D02*
X170000000Y-123181300D01*
X171750000Y-124993700D02*
X171750000Y-124931300D01*
X167113700Y-127705000D02*
X162850000Y-131968700D01*
X167113700Y-125670000D02*
X167113700Y-127705000D01*
X168642600Y-124538700D02*
X170000000Y-123181300D01*
X168120000Y-124538700D02*
X168642600Y-124538700D01*
X168120000Y-125670000D02*
X168120000Y-124538700D01*
X168120000Y-125670000D02*
X167113700Y-125670000D01*
X162850000Y-133000000D02*
X162850000Y-131968700D01*
X178000000Y-130650000D02*
X177095800Y-130650000D01*
X174350000Y-130000000D02*
X174915700Y-130000000D01*
X174915700Y-130000000D02*
X175481300Y-130000000D01*
X174250000Y-129334300D02*
X174250000Y-126000000D01*
X174915700Y-130000000D02*
X174250000Y-129334300D01*
X174150000Y-140720000D02*
X174150000Y-139808700D01*
X176131300Y-138004000D02*
X176131300Y-130650000D01*
X174326600Y-139808700D02*
X176131300Y-138004000D01*
X174150000Y-139808700D02*
X174326600Y-139808700D01*
X177095800Y-130650000D02*
X176131300Y-130650000D01*
X176131300Y-130650000D02*
X175481300Y-130000000D01*
X176000000Y-114750000D02*
X175496900Y-114750000D01*
X161718600Y-134837300D02*
X162850000Y-135968700D01*
X161718600Y-130705700D02*
X161718600Y-134837300D01*
X161972900Y-130451400D02*
X161718600Y-130705700D01*
X161972900Y-125778400D02*
X161972900Y-130451400D01*
X169340000Y-118411300D02*
X161972900Y-125778400D01*
X169340000Y-114680000D02*
X169340000Y-118411300D01*
X162850000Y-137000000D02*
X162850000Y-135968700D01*
X169340000Y-114680000D02*
X173071300Y-114680000D01*
X175496900Y-114680000D02*
X173071300Y-114680000D01*
X175496900Y-114750000D02*
X175496900Y-114680000D01*
X176000000Y-114176900D02*
X176000000Y-111250000D01*
X175496900Y-114680000D02*
X176000000Y-114176900D01*
X176000000Y-114750000D02*
X177006300Y-114750000D01*
X184000000Y-115618800D02*
X181755100Y-115618800D01*
X177875100Y-115618800D02*
X177006300Y-114750000D01*
X181755100Y-115618800D02*
X177875100Y-115618800D01*
X182028500Y-133295100D02*
X183000000Y-133295100D01*
X181755100Y-133021700D02*
X182028500Y-133295100D01*
X181755100Y-115618800D02*
X181755100Y-133021700D01*
X183000000Y-134540000D02*
X183000000Y-133295100D01*
X161096000Y-116216800D02*
X161096000Y-111000000D01*
X158068900Y-119243900D02*
X161096000Y-116216800D01*
X157256100Y-119243900D02*
X158068900Y-119243900D01*
X155500000Y-121000000D02*
X157256100Y-119243900D01*
X160150000Y-141000000D02*
X156750000Y-141000000D01*
X160150000Y-137000000D02*
X156750000Y-137000000D01*
X160150000Y-133000000D02*
X156750000Y-133000000D01*
M02*
