%FSLAX46Y46*%
G04 Gerber Fmt 4.6, Leading zero omitted, Abs format (unit mm)*
G04 Created by KiCad (PCBNEW (2014-10-22 BZR 5214)-product) date Sun 11 Oct 2015 07:22:09 PM EDT*
%MOMM*%
G01*
G04 APERTURE LIST*
%ADD10C,0.200000*%
%ADD11R,1.727200X1.727200*%
%ADD12O,1.727200X1.727200*%
%ADD13C,1.800000*%
%ADD14C,2.540000*%
%ADD15C,4.800600*%
%ADD16R,4.800600X4.800600*%
%ADD17C,0.889000*%
%ADD18C,0.254000*%
%ADD19C,0.152400*%
G04 APERTURE END LIST*
D10*
D11*
X183000000Y-132000000D03*
D12*
X185540000Y-132000000D03*
X183000000Y-134540000D03*
X185540000Y-134540000D03*
X183000000Y-137080000D03*
X185540000Y-137080000D03*
X183000000Y-139620000D03*
X185540000Y-139620000D03*
D13*
X155500000Y-121000000D03*
X158000000Y-121000000D03*
X160500000Y-121000000D03*
X155500000Y-127000000D03*
X158000000Y-127000000D03*
X160500000Y-127000000D03*
D14*
X184000000Y-120500000D03*
X184000000Y-115500000D03*
X184000000Y-110500000D03*
X184000000Y-125500000D03*
D15*
X155100000Y-110950000D03*
D16*
X161196000Y-110950000D03*
D15*
X157386000Y-116030000D03*
D17*
X174653700Y-108883000D03*
X174000000Y-123517000D03*
X153900000Y-135400000D03*
X153900000Y-139400000D03*
X174835000Y-135853300D03*
X173060900Y-141995500D03*
X170928800Y-144781100D03*
X154250000Y-131658500D03*
X174647700Y-117316400D03*
X178000000Y-134822900D03*
X171640000Y-110271300D03*
D18*
X185540000Y-132000000D02*
X183000000Y-132000000D01*
X183000000Y-134540000D02*
X184244900Y-134540000D01*
X185540000Y-133917500D02*
X185050000Y-134550000D01*
X185050000Y-134550000D02*
X184244900Y-134540000D01*
X185540000Y-133917500D02*
X185550000Y-134500000D01*
X185540000Y-134540000D02*
X185540000Y-133917500D01*
X184000000Y-115500000D02*
X186787400Y-118287400D01*
X186787400Y-118287400D02*
X186800000Y-134550000D01*
X186800000Y-134550000D02*
X185500000Y-134550000D01*
X185500000Y-134550000D02*
X185550000Y-134500000D01*
D19*
G36*
X187923800Y-143423800D02*
X187257200Y-143423800D01*
X187257200Y-134550000D01*
X187257164Y-134549823D01*
X187257200Y-134549646D01*
X187244600Y-118287400D01*
X187244600Y-118287046D01*
X187227197Y-118199913D01*
X187209798Y-118112437D01*
X187209697Y-118112286D01*
X187209662Y-118112110D01*
X187160484Y-118038634D01*
X187110689Y-117964111D01*
X185414007Y-116267429D01*
X185599922Y-115819696D01*
X185600477Y-115183097D01*
X185600477Y-110183097D01*
X185357375Y-109594744D01*
X184907624Y-109144207D01*
X184319696Y-108900078D01*
X183683097Y-108899523D01*
X183094744Y-109142625D01*
X182644207Y-109592376D01*
X182400078Y-110180304D01*
X182399523Y-110816903D01*
X182642625Y-111405256D01*
X183092376Y-111855793D01*
X183680304Y-112099922D01*
X184316903Y-112100477D01*
X184905256Y-111857375D01*
X185355793Y-111407624D01*
X185599922Y-110819696D01*
X185600477Y-110183097D01*
X185600477Y-115183097D01*
X185357375Y-114594744D01*
X184907624Y-114144207D01*
X184319696Y-113900078D01*
X183683097Y-113899523D01*
X183094744Y-114142625D01*
X182644207Y-114592376D01*
X182400078Y-115180304D01*
X182399523Y-115816903D01*
X182642625Y-116405256D01*
X183092376Y-116855793D01*
X183680304Y-117099922D01*
X184316903Y-117100477D01*
X184767653Y-116914231D01*
X186330346Y-118476924D01*
X186340135Y-131110822D01*
X186020235Y-130897073D01*
X185871650Y-130867517D01*
X185871650Y-120766491D01*
X185831161Y-120029956D01*
X185627198Y-119537545D01*
X185352831Y-119398616D01*
X185101384Y-119650063D01*
X185101384Y-119147169D01*
X184962455Y-118872802D01*
X184266491Y-118628350D01*
X183529956Y-118668839D01*
X183037545Y-118872802D01*
X182898616Y-119147169D01*
X184000000Y-120248553D01*
X185101384Y-119147169D01*
X185101384Y-119650063D01*
X184251447Y-120500000D01*
X185352831Y-121601384D01*
X185627198Y-121462455D01*
X185871650Y-120766491D01*
X185871650Y-130867517D01*
X185600477Y-130813577D01*
X185600477Y-125183097D01*
X185357375Y-124594744D01*
X185101384Y-124338305D01*
X185101384Y-121852831D01*
X184000000Y-120751447D01*
X183748553Y-121002894D01*
X183748553Y-120500000D01*
X182647169Y-119398616D01*
X182372802Y-119537545D01*
X182128350Y-120233509D01*
X182168839Y-120970044D01*
X182372802Y-121462455D01*
X182647169Y-121601384D01*
X183748553Y-120500000D01*
X183748553Y-121002894D01*
X182898616Y-121852831D01*
X183037545Y-122127198D01*
X183733509Y-122371650D01*
X184470044Y-122331161D01*
X184962455Y-122127198D01*
X185101384Y-121852831D01*
X185101384Y-124338305D01*
X184907624Y-124144207D01*
X184319696Y-123900078D01*
X183683097Y-123899523D01*
X183094744Y-124142625D01*
X182644207Y-124592376D01*
X182400078Y-125180304D01*
X182399523Y-125816903D01*
X182642625Y-126405256D01*
X183092376Y-126855793D01*
X183680304Y-127099922D01*
X184316903Y-127100477D01*
X184905256Y-126857375D01*
X185355793Y-126407624D01*
X185599922Y-125819696D01*
X185600477Y-125183097D01*
X185600477Y-130813577D01*
X185563388Y-130806200D01*
X185516612Y-130806200D01*
X185059765Y-130897073D01*
X184672468Y-131155856D01*
X184413920Y-131542800D01*
X184193800Y-131542800D01*
X184193800Y-131070719D01*
X184143530Y-130949357D01*
X184050643Y-130856470D01*
X183929281Y-130806200D01*
X183797919Y-130806200D01*
X182070719Y-130806200D01*
X181949357Y-130856470D01*
X181856470Y-130949357D01*
X181806200Y-131070719D01*
X181806200Y-131202081D01*
X181806200Y-132929281D01*
X181856470Y-133050643D01*
X181949357Y-133143530D01*
X182070719Y-133193800D01*
X182202081Y-133193800D01*
X183929281Y-133193800D01*
X184050643Y-133143530D01*
X184143530Y-133050643D01*
X184193800Y-132929281D01*
X184193800Y-132797919D01*
X184193800Y-132457200D01*
X184413920Y-132457200D01*
X184672468Y-132844144D01*
X185059765Y-133102927D01*
X185516612Y-133193800D01*
X185563388Y-133193800D01*
X186020235Y-133102927D01*
X186341512Y-132888256D01*
X186342104Y-133652138D01*
X186020235Y-133437073D01*
X185563388Y-133346200D01*
X185516612Y-133346200D01*
X185059765Y-133437073D01*
X184672468Y-133695856D01*
X184413685Y-134083153D01*
X184413346Y-134084856D01*
X184250578Y-134082835D01*
X184247734Y-134083363D01*
X184244900Y-134082800D01*
X184126079Y-134082800D01*
X183867532Y-133695856D01*
X183480235Y-133437073D01*
X183023388Y-133346200D01*
X182976612Y-133346200D01*
X182519765Y-133437073D01*
X182132468Y-133695856D01*
X181873685Y-134083153D01*
X181782812Y-134540000D01*
X181873685Y-134996847D01*
X182132468Y-135384144D01*
X182519765Y-135642927D01*
X182822198Y-135703084D01*
X182822198Y-135789194D01*
X182599615Y-135688649D01*
X182097646Y-135947780D01*
X181733052Y-136379281D01*
X181608663Y-136679618D01*
X181710450Y-136902200D01*
X182822200Y-136902200D01*
X182822200Y-136882200D01*
X183177800Y-136882200D01*
X183177800Y-136902200D01*
X184250450Y-136902200D01*
X184289550Y-136902200D01*
X185362200Y-136902200D01*
X185362200Y-136882200D01*
X185717800Y-136882200D01*
X185717800Y-136902200D01*
X186829550Y-136902200D01*
X186931337Y-136679618D01*
X186806948Y-136379281D01*
X186442354Y-135947780D01*
X185940385Y-135688649D01*
X185717802Y-135789194D01*
X185717802Y-135703084D01*
X186020235Y-135642927D01*
X186407532Y-135384144D01*
X186659397Y-135007200D01*
X186800000Y-135007200D01*
X186800176Y-135007164D01*
X186800354Y-135007200D01*
X186887486Y-134989797D01*
X186974963Y-134972398D01*
X186975113Y-134972297D01*
X186975290Y-134972262D01*
X187049209Y-134922787D01*
X187123289Y-134873289D01*
X187123388Y-134873139D01*
X187123539Y-134873039D01*
X187172874Y-134799079D01*
X187222398Y-134724963D01*
X187222433Y-134724785D01*
X187222533Y-134724636D01*
X187239809Y-134637426D01*
X187257200Y-134550000D01*
X187257200Y-143423800D01*
X186931337Y-143423800D01*
X186931337Y-137480382D01*
X186829550Y-137257800D01*
X185717800Y-137257800D01*
X185717800Y-137277800D01*
X185362200Y-137277800D01*
X185362200Y-137257800D01*
X184289550Y-137257800D01*
X184250450Y-137257800D01*
X183177800Y-137257800D01*
X183177800Y-137277800D01*
X182822200Y-137277800D01*
X182822200Y-137257800D01*
X181710450Y-137257800D01*
X181608663Y-137480382D01*
X181733052Y-137780719D01*
X182097646Y-138212220D01*
X182599615Y-138471351D01*
X182822198Y-138370805D01*
X182822198Y-138456914D01*
X182519765Y-138517073D01*
X182132468Y-138775856D01*
X181873685Y-139163153D01*
X181782812Y-139620000D01*
X181873685Y-140076847D01*
X182132468Y-140464144D01*
X182519765Y-140722927D01*
X182976612Y-140813800D01*
X183023388Y-140813800D01*
X183480235Y-140722927D01*
X183867532Y-140464144D01*
X184126315Y-140076847D01*
X184217188Y-139620000D01*
X184126315Y-139163153D01*
X183867532Y-138775856D01*
X183480235Y-138517073D01*
X183177802Y-138456915D01*
X183177802Y-138370805D01*
X183400385Y-138471351D01*
X183902354Y-138212220D01*
X184266948Y-137780719D01*
X184270000Y-137773349D01*
X184273052Y-137780719D01*
X184637646Y-138212220D01*
X185139615Y-138471351D01*
X185362198Y-138370805D01*
X185362198Y-138456914D01*
X185059765Y-138517073D01*
X184672468Y-138775856D01*
X184413685Y-139163153D01*
X184322812Y-139620000D01*
X184413685Y-140076847D01*
X184672468Y-140464144D01*
X185059765Y-140722927D01*
X185516612Y-140813800D01*
X185563388Y-140813800D01*
X186020235Y-140722927D01*
X186407532Y-140464144D01*
X186666315Y-140076847D01*
X186757188Y-139620000D01*
X186666315Y-139163153D01*
X186407532Y-138775856D01*
X186020235Y-138517073D01*
X185717802Y-138456915D01*
X185717802Y-138370805D01*
X185940385Y-138471351D01*
X186442354Y-138212220D01*
X186806948Y-137780719D01*
X186931337Y-137480382D01*
X186931337Y-143423800D01*
X186757188Y-143423800D01*
X184217188Y-143423800D01*
X182423800Y-143423800D01*
X182423800Y-148923800D01*
X163926500Y-148923800D01*
X163926500Y-113415981D01*
X163926500Y-113284619D01*
X163926500Y-108484019D01*
X163876230Y-108362657D01*
X163783343Y-108269770D01*
X163661981Y-108219500D01*
X163530619Y-108219500D01*
X158730019Y-108219500D01*
X158608657Y-108269770D01*
X158515770Y-108362657D01*
X158465500Y-108484019D01*
X158465500Y-108615381D01*
X158465500Y-113415981D01*
X158515770Y-113537343D01*
X158524724Y-113546297D01*
X158095343Y-113368002D01*
X158095343Y-111486266D01*
X158072557Y-110299178D01*
X157662117Y-109308286D01*
X157270294Y-109031153D01*
X157018847Y-109282600D01*
X157018847Y-108779706D01*
X156741714Y-108387883D01*
X155636266Y-107954657D01*
X154449178Y-107977443D01*
X153458286Y-108387883D01*
X153181153Y-108779706D01*
X155100000Y-110698553D01*
X157018847Y-108779706D01*
X157018847Y-109282600D01*
X155351447Y-110950000D01*
X157270294Y-112868847D01*
X157662117Y-112591714D01*
X158095343Y-111486266D01*
X158095343Y-113368002D01*
X157931513Y-113299975D01*
X156892401Y-113299068D01*
X157018847Y-113120294D01*
X155100000Y-111201447D01*
X154848553Y-111452894D01*
X154848553Y-110950000D01*
X152929706Y-109031153D01*
X152537883Y-109308286D01*
X152104657Y-110413734D01*
X152127443Y-111600822D01*
X152537883Y-112591714D01*
X152929706Y-112868847D01*
X154848553Y-110950000D01*
X154848553Y-111452894D01*
X153181153Y-113120294D01*
X153458286Y-113512117D01*
X154563734Y-113945343D01*
X155629914Y-113924877D01*
X155072544Y-114481276D01*
X154655975Y-115484487D01*
X154655027Y-116570747D01*
X155069845Y-117574684D01*
X155837276Y-118343456D01*
X156840487Y-118760025D01*
X157926747Y-118760973D01*
X158930684Y-118346155D01*
X159699456Y-117578724D01*
X160116025Y-116575513D01*
X160116973Y-115489253D01*
X159702155Y-114485316D01*
X158934724Y-113716544D01*
X158847920Y-113680500D01*
X158861381Y-113680500D01*
X163661981Y-113680500D01*
X163783343Y-113630230D01*
X163876230Y-113537343D01*
X163926500Y-113415981D01*
X163926500Y-148923800D01*
X161730413Y-148923800D01*
X161730413Y-126756372D01*
X161730413Y-120756372D01*
X161543521Y-120304058D01*
X161197762Y-119957695D01*
X160745775Y-119770014D01*
X160256372Y-119769587D01*
X159804058Y-119956479D01*
X159457695Y-120302238D01*
X159270014Y-120754225D01*
X159269587Y-121243628D01*
X159456479Y-121695942D01*
X159802238Y-122042305D01*
X160254225Y-122229986D01*
X160743628Y-122230413D01*
X161195942Y-122043521D01*
X161542305Y-121697762D01*
X161729986Y-121245775D01*
X161730413Y-120756372D01*
X161730413Y-126756372D01*
X161543521Y-126304058D01*
X161197762Y-125957695D01*
X160745775Y-125770014D01*
X160256372Y-125769587D01*
X159804058Y-125956479D01*
X159457695Y-126302238D01*
X159270014Y-126754225D01*
X159269587Y-127243628D01*
X159456479Y-127695942D01*
X159802238Y-128042305D01*
X160254225Y-128229986D01*
X160743628Y-128230413D01*
X161195942Y-128043521D01*
X161542305Y-127697762D01*
X161729986Y-127245775D01*
X161730413Y-126756372D01*
X161730413Y-148923800D01*
X159230413Y-148923800D01*
X159230413Y-126756372D01*
X159230413Y-120756372D01*
X159043521Y-120304058D01*
X158697762Y-119957695D01*
X158245775Y-119770014D01*
X157756372Y-119769587D01*
X157304058Y-119956479D01*
X156957695Y-120302238D01*
X156770014Y-120754225D01*
X156769587Y-121243628D01*
X156956479Y-121695942D01*
X157302238Y-122042305D01*
X157754225Y-122229986D01*
X158243628Y-122230413D01*
X158695942Y-122043521D01*
X159042305Y-121697762D01*
X159229986Y-121245775D01*
X159230413Y-120756372D01*
X159230413Y-126756372D01*
X159043521Y-126304058D01*
X158697762Y-125957695D01*
X158245775Y-125770014D01*
X157756372Y-125769587D01*
X157304058Y-125956479D01*
X156957695Y-126302238D01*
X156770014Y-126754225D01*
X156769587Y-127243628D01*
X156956479Y-127695942D01*
X157302238Y-128042305D01*
X157754225Y-128229986D01*
X158243628Y-128230413D01*
X158695942Y-128043521D01*
X159042305Y-127697762D01*
X159229986Y-127245775D01*
X159230413Y-126756372D01*
X159230413Y-148923800D01*
X157576200Y-148923800D01*
X157576200Y-143423800D01*
X156730413Y-143423800D01*
X156730413Y-126756372D01*
X156730413Y-120756372D01*
X156543521Y-120304058D01*
X156197762Y-119957695D01*
X155745775Y-119770014D01*
X155256372Y-119769587D01*
X154804058Y-119956479D01*
X154457695Y-120302238D01*
X154270014Y-120754225D01*
X154269587Y-121243628D01*
X154456479Y-121695942D01*
X154802238Y-122042305D01*
X155254225Y-122229986D01*
X155743628Y-122230413D01*
X156195942Y-122043521D01*
X156542305Y-121697762D01*
X156729986Y-121245775D01*
X156730413Y-120756372D01*
X156730413Y-126756372D01*
X156543521Y-126304058D01*
X156197762Y-125957695D01*
X155745775Y-125770014D01*
X155256372Y-125769587D01*
X154804058Y-125956479D01*
X154457695Y-126302238D01*
X154270014Y-126754225D01*
X154269587Y-127243628D01*
X154456479Y-127695942D01*
X154802238Y-128042305D01*
X155254225Y-128229986D01*
X155743628Y-128230413D01*
X156195942Y-128043521D01*
X156542305Y-127697762D01*
X156729986Y-127245775D01*
X156730413Y-126756372D01*
X156730413Y-143423800D01*
X152076200Y-143423800D01*
X152076200Y-106576200D01*
X157576200Y-106576200D01*
X157576200Y-101076200D01*
X182423800Y-101076200D01*
X182423800Y-106576200D01*
X187923800Y-106576200D01*
X187923800Y-143423800D01*
X187923800Y-143423800D01*
G37*
X187923800Y-143423800D02*
X187257200Y-143423800D01*
X187257200Y-134550000D01*
X187257164Y-134549823D01*
X187257200Y-134549646D01*
X187244600Y-118287400D01*
X187244600Y-118287046D01*
X187227197Y-118199913D01*
X187209798Y-118112437D01*
X187209697Y-118112286D01*
X187209662Y-118112110D01*
X187160484Y-118038634D01*
X187110689Y-117964111D01*
X185414007Y-116267429D01*
X185599922Y-115819696D01*
X185600477Y-115183097D01*
X185600477Y-110183097D01*
X185357375Y-109594744D01*
X184907624Y-109144207D01*
X184319696Y-108900078D01*
X183683097Y-108899523D01*
X183094744Y-109142625D01*
X182644207Y-109592376D01*
X182400078Y-110180304D01*
X182399523Y-110816903D01*
X182642625Y-111405256D01*
X183092376Y-111855793D01*
X183680304Y-112099922D01*
X184316903Y-112100477D01*
X184905256Y-111857375D01*
X185355793Y-111407624D01*
X185599922Y-110819696D01*
X185600477Y-110183097D01*
X185600477Y-115183097D01*
X185357375Y-114594744D01*
X184907624Y-114144207D01*
X184319696Y-113900078D01*
X183683097Y-113899523D01*
X183094744Y-114142625D01*
X182644207Y-114592376D01*
X182400078Y-115180304D01*
X182399523Y-115816903D01*
X182642625Y-116405256D01*
X183092376Y-116855793D01*
X183680304Y-117099922D01*
X184316903Y-117100477D01*
X184767653Y-116914231D01*
X186330346Y-118476924D01*
X186340135Y-131110822D01*
X186020235Y-130897073D01*
X185871650Y-130867517D01*
X185871650Y-120766491D01*
X185831161Y-120029956D01*
X185627198Y-119537545D01*
X185352831Y-119398616D01*
X185101384Y-119650063D01*
X185101384Y-119147169D01*
X184962455Y-118872802D01*
X184266491Y-118628350D01*
X183529956Y-118668839D01*
X183037545Y-118872802D01*
X182898616Y-119147169D01*
X184000000Y-120248553D01*
X185101384Y-119147169D01*
X185101384Y-119650063D01*
X184251447Y-120500000D01*
X185352831Y-121601384D01*
X185627198Y-121462455D01*
X185871650Y-120766491D01*
X185871650Y-130867517D01*
X185600477Y-130813577D01*
X185600477Y-125183097D01*
X185357375Y-124594744D01*
X185101384Y-124338305D01*
X185101384Y-121852831D01*
X184000000Y-120751447D01*
X183748553Y-121002894D01*
X183748553Y-120500000D01*
X182647169Y-119398616D01*
X182372802Y-119537545D01*
X182128350Y-120233509D01*
X182168839Y-120970044D01*
X182372802Y-121462455D01*
X182647169Y-121601384D01*
X183748553Y-120500000D01*
X183748553Y-121002894D01*
X182898616Y-121852831D01*
X183037545Y-122127198D01*
X183733509Y-122371650D01*
X184470044Y-122331161D01*
X184962455Y-122127198D01*
X185101384Y-121852831D01*
X185101384Y-124338305D01*
X184907624Y-124144207D01*
X184319696Y-123900078D01*
X183683097Y-123899523D01*
X183094744Y-124142625D01*
X182644207Y-124592376D01*
X182400078Y-125180304D01*
X182399523Y-125816903D01*
X182642625Y-126405256D01*
X183092376Y-126855793D01*
X183680304Y-127099922D01*
X184316903Y-127100477D01*
X184905256Y-126857375D01*
X185355793Y-126407624D01*
X185599922Y-125819696D01*
X185600477Y-125183097D01*
X185600477Y-130813577D01*
X185563388Y-130806200D01*
X185516612Y-130806200D01*
X185059765Y-130897073D01*
X184672468Y-131155856D01*
X184413920Y-131542800D01*
X184193800Y-131542800D01*
X184193800Y-131070719D01*
X184143530Y-130949357D01*
X184050643Y-130856470D01*
X183929281Y-130806200D01*
X183797919Y-130806200D01*
X182070719Y-130806200D01*
X181949357Y-130856470D01*
X181856470Y-130949357D01*
X181806200Y-131070719D01*
X181806200Y-131202081D01*
X181806200Y-132929281D01*
X181856470Y-133050643D01*
X181949357Y-133143530D01*
X182070719Y-133193800D01*
X182202081Y-133193800D01*
X183929281Y-133193800D01*
X184050643Y-133143530D01*
X184143530Y-133050643D01*
X184193800Y-132929281D01*
X184193800Y-132797919D01*
X184193800Y-132457200D01*
X184413920Y-132457200D01*
X184672468Y-132844144D01*
X185059765Y-133102927D01*
X185516612Y-133193800D01*
X185563388Y-133193800D01*
X186020235Y-133102927D01*
X186341512Y-132888256D01*
X186342104Y-133652138D01*
X186020235Y-133437073D01*
X185563388Y-133346200D01*
X185516612Y-133346200D01*
X185059765Y-133437073D01*
X184672468Y-133695856D01*
X184413685Y-134083153D01*
X184413346Y-134084856D01*
X184250578Y-134082835D01*
X184247734Y-134083363D01*
X184244900Y-134082800D01*
X184126079Y-134082800D01*
X183867532Y-133695856D01*
X183480235Y-133437073D01*
X183023388Y-133346200D01*
X182976612Y-133346200D01*
X182519765Y-133437073D01*
X182132468Y-133695856D01*
X181873685Y-134083153D01*
X181782812Y-134540000D01*
X181873685Y-134996847D01*
X182132468Y-135384144D01*
X182519765Y-135642927D01*
X182822198Y-135703084D01*
X182822198Y-135789194D01*
X182599615Y-135688649D01*
X182097646Y-135947780D01*
X181733052Y-136379281D01*
X181608663Y-136679618D01*
X181710450Y-136902200D01*
X182822200Y-136902200D01*
X182822200Y-136882200D01*
X183177800Y-136882200D01*
X183177800Y-136902200D01*
X184250450Y-136902200D01*
X184289550Y-136902200D01*
X185362200Y-136902200D01*
X185362200Y-136882200D01*
X185717800Y-136882200D01*
X185717800Y-136902200D01*
X186829550Y-136902200D01*
X186931337Y-136679618D01*
X186806948Y-136379281D01*
X186442354Y-135947780D01*
X185940385Y-135688649D01*
X185717802Y-135789194D01*
X185717802Y-135703084D01*
X186020235Y-135642927D01*
X186407532Y-135384144D01*
X186659397Y-135007200D01*
X186800000Y-135007200D01*
X186800176Y-135007164D01*
X186800354Y-135007200D01*
X186887486Y-134989797D01*
X186974963Y-134972398D01*
X186975113Y-134972297D01*
X186975290Y-134972262D01*
X187049209Y-134922787D01*
X187123289Y-134873289D01*
X187123388Y-134873139D01*
X187123539Y-134873039D01*
X187172874Y-134799079D01*
X187222398Y-134724963D01*
X187222433Y-134724785D01*
X187222533Y-134724636D01*
X187239809Y-134637426D01*
X187257200Y-134550000D01*
X187257200Y-143423800D01*
X186931337Y-143423800D01*
X186931337Y-137480382D01*
X186829550Y-137257800D01*
X185717800Y-137257800D01*
X185717800Y-137277800D01*
X185362200Y-137277800D01*
X185362200Y-137257800D01*
X184289550Y-137257800D01*
X184250450Y-137257800D01*
X183177800Y-137257800D01*
X183177800Y-137277800D01*
X182822200Y-137277800D01*
X182822200Y-137257800D01*
X181710450Y-137257800D01*
X181608663Y-137480382D01*
X181733052Y-137780719D01*
X182097646Y-138212220D01*
X182599615Y-138471351D01*
X182822198Y-138370805D01*
X182822198Y-138456914D01*
X182519765Y-138517073D01*
X182132468Y-138775856D01*
X181873685Y-139163153D01*
X181782812Y-139620000D01*
X181873685Y-140076847D01*
X182132468Y-140464144D01*
X182519765Y-140722927D01*
X182976612Y-140813800D01*
X183023388Y-140813800D01*
X183480235Y-140722927D01*
X183867532Y-140464144D01*
X184126315Y-140076847D01*
X184217188Y-139620000D01*
X184126315Y-139163153D01*
X183867532Y-138775856D01*
X183480235Y-138517073D01*
X183177802Y-138456915D01*
X183177802Y-138370805D01*
X183400385Y-138471351D01*
X183902354Y-138212220D01*
X184266948Y-137780719D01*
X184270000Y-137773349D01*
X184273052Y-137780719D01*
X184637646Y-138212220D01*
X185139615Y-138471351D01*
X185362198Y-138370805D01*
X185362198Y-138456914D01*
X185059765Y-138517073D01*
X184672468Y-138775856D01*
X184413685Y-139163153D01*
X184322812Y-139620000D01*
X184413685Y-140076847D01*
X184672468Y-140464144D01*
X185059765Y-140722927D01*
X185516612Y-140813800D01*
X185563388Y-140813800D01*
X186020235Y-140722927D01*
X186407532Y-140464144D01*
X186666315Y-140076847D01*
X186757188Y-139620000D01*
X186666315Y-139163153D01*
X186407532Y-138775856D01*
X186020235Y-138517073D01*
X185717802Y-138456915D01*
X185717802Y-138370805D01*
X185940385Y-138471351D01*
X186442354Y-138212220D01*
X186806948Y-137780719D01*
X186931337Y-137480382D01*
X186931337Y-143423800D01*
X186757188Y-143423800D01*
X184217188Y-143423800D01*
X182423800Y-143423800D01*
X182423800Y-148923800D01*
X163926500Y-148923800D01*
X163926500Y-113415981D01*
X163926500Y-113284619D01*
X163926500Y-108484019D01*
X163876230Y-108362657D01*
X163783343Y-108269770D01*
X163661981Y-108219500D01*
X163530619Y-108219500D01*
X158730019Y-108219500D01*
X158608657Y-108269770D01*
X158515770Y-108362657D01*
X158465500Y-108484019D01*
X158465500Y-108615381D01*
X158465500Y-113415981D01*
X158515770Y-113537343D01*
X158524724Y-113546297D01*
X158095343Y-113368002D01*
X158095343Y-111486266D01*
X158072557Y-110299178D01*
X157662117Y-109308286D01*
X157270294Y-109031153D01*
X157018847Y-109282600D01*
X157018847Y-108779706D01*
X156741714Y-108387883D01*
X155636266Y-107954657D01*
X154449178Y-107977443D01*
X153458286Y-108387883D01*
X153181153Y-108779706D01*
X155100000Y-110698553D01*
X157018847Y-108779706D01*
X157018847Y-109282600D01*
X155351447Y-110950000D01*
X157270294Y-112868847D01*
X157662117Y-112591714D01*
X158095343Y-111486266D01*
X158095343Y-113368002D01*
X157931513Y-113299975D01*
X156892401Y-113299068D01*
X157018847Y-113120294D01*
X155100000Y-111201447D01*
X154848553Y-111452894D01*
X154848553Y-110950000D01*
X152929706Y-109031153D01*
X152537883Y-109308286D01*
X152104657Y-110413734D01*
X152127443Y-111600822D01*
X152537883Y-112591714D01*
X152929706Y-112868847D01*
X154848553Y-110950000D01*
X154848553Y-111452894D01*
X153181153Y-113120294D01*
X153458286Y-113512117D01*
X154563734Y-113945343D01*
X155629914Y-113924877D01*
X155072544Y-114481276D01*
X154655975Y-115484487D01*
X154655027Y-116570747D01*
X155069845Y-117574684D01*
X155837276Y-118343456D01*
X156840487Y-118760025D01*
X157926747Y-118760973D01*
X158930684Y-118346155D01*
X159699456Y-117578724D01*
X160116025Y-116575513D01*
X160116973Y-115489253D01*
X159702155Y-114485316D01*
X158934724Y-113716544D01*
X158847920Y-113680500D01*
X158861381Y-113680500D01*
X163661981Y-113680500D01*
X163783343Y-113630230D01*
X163876230Y-113537343D01*
X163926500Y-113415981D01*
X163926500Y-148923800D01*
X161730413Y-148923800D01*
X161730413Y-126756372D01*
X161730413Y-120756372D01*
X161543521Y-120304058D01*
X161197762Y-119957695D01*
X160745775Y-119770014D01*
X160256372Y-119769587D01*
X159804058Y-119956479D01*
X159457695Y-120302238D01*
X159270014Y-120754225D01*
X159269587Y-121243628D01*
X159456479Y-121695942D01*
X159802238Y-122042305D01*
X160254225Y-122229986D01*
X160743628Y-122230413D01*
X161195942Y-122043521D01*
X161542305Y-121697762D01*
X161729986Y-121245775D01*
X161730413Y-120756372D01*
X161730413Y-126756372D01*
X161543521Y-126304058D01*
X161197762Y-125957695D01*
X160745775Y-125770014D01*
X160256372Y-125769587D01*
X159804058Y-125956479D01*
X159457695Y-126302238D01*
X159270014Y-126754225D01*
X159269587Y-127243628D01*
X159456479Y-127695942D01*
X159802238Y-128042305D01*
X160254225Y-128229986D01*
X160743628Y-128230413D01*
X161195942Y-128043521D01*
X161542305Y-127697762D01*
X161729986Y-127245775D01*
X161730413Y-126756372D01*
X161730413Y-148923800D01*
X159230413Y-148923800D01*
X159230413Y-126756372D01*
X159230413Y-120756372D01*
X159043521Y-120304058D01*
X158697762Y-119957695D01*
X158245775Y-119770014D01*
X157756372Y-119769587D01*
X157304058Y-119956479D01*
X156957695Y-120302238D01*
X156770014Y-120754225D01*
X156769587Y-121243628D01*
X156956479Y-121695942D01*
X157302238Y-122042305D01*
X157754225Y-122229986D01*
X158243628Y-122230413D01*
X158695942Y-122043521D01*
X159042305Y-121697762D01*
X159229986Y-121245775D01*
X159230413Y-120756372D01*
X159230413Y-126756372D01*
X159043521Y-126304058D01*
X158697762Y-125957695D01*
X158245775Y-125770014D01*
X157756372Y-125769587D01*
X157304058Y-125956479D01*
X156957695Y-126302238D01*
X156770014Y-126754225D01*
X156769587Y-127243628D01*
X156956479Y-127695942D01*
X157302238Y-128042305D01*
X157754225Y-128229986D01*
X158243628Y-128230413D01*
X158695942Y-128043521D01*
X159042305Y-127697762D01*
X159229986Y-127245775D01*
X159230413Y-126756372D01*
X159230413Y-148923800D01*
X157576200Y-148923800D01*
X157576200Y-143423800D01*
X156730413Y-143423800D01*
X156730413Y-126756372D01*
X156730413Y-120756372D01*
X156543521Y-120304058D01*
X156197762Y-119957695D01*
X155745775Y-119770014D01*
X155256372Y-119769587D01*
X154804058Y-119956479D01*
X154457695Y-120302238D01*
X154270014Y-120754225D01*
X154269587Y-121243628D01*
X154456479Y-121695942D01*
X154802238Y-122042305D01*
X155254225Y-122229986D01*
X155743628Y-122230413D01*
X156195942Y-122043521D01*
X156542305Y-121697762D01*
X156729986Y-121245775D01*
X156730413Y-120756372D01*
X156730413Y-126756372D01*
X156543521Y-126304058D01*
X156197762Y-125957695D01*
X155745775Y-125770014D01*
X155256372Y-125769587D01*
X154804058Y-125956479D01*
X154457695Y-126302238D01*
X154270014Y-126754225D01*
X154269587Y-127243628D01*
X154456479Y-127695942D01*
X154802238Y-128042305D01*
X155254225Y-128229986D01*
X155743628Y-128230413D01*
X156195942Y-128043521D01*
X156542305Y-127697762D01*
X156729986Y-127245775D01*
X156730413Y-126756372D01*
X156730413Y-143423800D01*
X152076200Y-143423800D01*
X152076200Y-106576200D01*
X157576200Y-106576200D01*
X157576200Y-101076200D01*
X182423800Y-101076200D01*
X182423800Y-106576200D01*
X187923800Y-106576200D01*
X187923800Y-143423800D01*
M02*
