M48
INCH,TZ
T1C0.025
T2C0.035
T3C0.039
T4C0.040
T5C0.138
%
G90
G05
T1
X60142Y-55533
X60146Y-53922
X60728Y-51837
X67575Y-43414
X68189Y-55886
X68370Y-52858
X68504Y-48622
X68759Y-46188
X68761Y-42867
X70079Y-53080
T2
X61220Y-47638
X61220Y-50000
X62205Y-47638
X62205Y-50000
X63189Y-47638
X63189Y-50000
T3
X72441Y-43644
X72441Y-45519
X72441Y-47394
X72441Y-49269
T4
X72047Y-51969
X72047Y-52969
X72047Y-53969
X72047Y-54969
X73047Y-51969
X73047Y-52969
X73047Y-53969
X73047Y-54969
T5
X60630Y-40551
X60630Y-57874
X73228Y-40551
X73228Y-57874
T4
X61024Y-43401G85X61024Y-44001
G05
X61624Y-45701G85X62224Y-45701
G05
X63424Y-43401G85X63424Y-44001
G05
T0
M30
