%FSLAX46Y46*%
G04 Gerber Fmt 4.6, Leading zero omitted, Abs format (unit mm)*
G04 Created by KiCad (PCBNEW (2014-10-22 BZR 5214)-product) date Sat 10 Oct 2015 03:54:35 PM EDT*
%MOMM*%
G01*
G04 APERTURE LIST*
%ADD10C,0.200000*%
%ADD11C,0.150000*%
%ADD12C,0.300000*%
G04 APERTURE END LIST*
D10*
D11*
X161095237Y-147952381D02*
X160523808Y-147952381D01*
X160809522Y-147952381D02*
X160809522Y-146952381D01*
X160714284Y-147095238D01*
X160619046Y-147190476D01*
X160523808Y-147238095D01*
X161999999Y-146952381D02*
X161523808Y-146952381D01*
X161476189Y-147428571D01*
X161523808Y-147380952D01*
X161619046Y-147333333D01*
X161857142Y-147333333D01*
X161952380Y-147380952D01*
X161999999Y-147428571D01*
X162047618Y-147523810D01*
X162047618Y-147761905D01*
X161999999Y-147857143D01*
X161952380Y-147904762D01*
X161857142Y-147952381D01*
X161619046Y-147952381D01*
X161523808Y-147904762D01*
X161476189Y-147857143D01*
X163190475Y-146904762D02*
X162333332Y-148190476D01*
X164047618Y-147952381D02*
X163476189Y-147952381D01*
X163761903Y-147952381D02*
X163761903Y-146952381D01*
X163666665Y-147095238D01*
X163571427Y-147190476D01*
X163476189Y-147238095D01*
X164666665Y-146952381D02*
X164761904Y-146952381D01*
X164857142Y-147000000D01*
X164904761Y-147047619D01*
X164952380Y-147142857D01*
X164999999Y-147333333D01*
X164999999Y-147571429D01*
X164952380Y-147761905D01*
X164904761Y-147857143D01*
X164857142Y-147904762D01*
X164761904Y-147952381D01*
X164666665Y-147952381D01*
X164571427Y-147904762D01*
X164523808Y-147857143D01*
X164476189Y-147761905D01*
X164428570Y-147571429D01*
X164428570Y-147333333D01*
X164476189Y-147142857D01*
X164523808Y-147047619D01*
X164571427Y-147000000D01*
X164666665Y-146952381D01*
X166142856Y-146904762D02*
X165285713Y-148190476D01*
X166999999Y-147952381D02*
X166428570Y-147952381D01*
X166714284Y-147952381D02*
X166714284Y-146952381D01*
X166619046Y-147095238D01*
X166523808Y-147190476D01*
X166428570Y-147238095D01*
X167619046Y-146952381D02*
X167714285Y-146952381D01*
X167809523Y-147000000D01*
X167857142Y-147047619D01*
X167904761Y-147142857D01*
X167952380Y-147333333D01*
X167952380Y-147571429D01*
X167904761Y-147761905D01*
X167857142Y-147857143D01*
X167809523Y-147904762D01*
X167714285Y-147952381D01*
X167619046Y-147952381D01*
X167523808Y-147904762D01*
X167476189Y-147857143D01*
X167428570Y-147761905D01*
X167380951Y-147571429D01*
X167380951Y-147333333D01*
X167428570Y-147142857D01*
X167476189Y-147047619D01*
X167523808Y-147000000D01*
X167619046Y-146952381D01*
X169095237Y-147666667D02*
X169571428Y-147666667D01*
X168999999Y-147952381D02*
X169333332Y-146952381D01*
X169666666Y-147952381D01*
X170142856Y-147952381D02*
X170047618Y-147904762D01*
X169999999Y-147809524D01*
X169999999Y-146952381D01*
X170952381Y-147952381D02*
X170952381Y-147428571D01*
X170904762Y-147333333D01*
X170809524Y-147285714D01*
X170619047Y-147285714D01*
X170523809Y-147333333D01*
X170952381Y-147904762D02*
X170857143Y-147952381D01*
X170619047Y-147952381D01*
X170523809Y-147904762D01*
X170476190Y-147809524D01*
X170476190Y-147714286D01*
X170523809Y-147619048D01*
X170619047Y-147571429D01*
X170857143Y-147571429D01*
X170952381Y-147523810D01*
X171428571Y-147285714D02*
X171428571Y-147952381D01*
X171428571Y-147380952D02*
X171476190Y-147333333D01*
X171571428Y-147285714D01*
X171714286Y-147285714D01*
X171809524Y-147333333D01*
X171857143Y-147428571D01*
X171857143Y-147952381D01*
X173428572Y-147428571D02*
X173571429Y-147476190D01*
X173619048Y-147523810D01*
X173666667Y-147619048D01*
X173666667Y-147761905D01*
X173619048Y-147857143D01*
X173571429Y-147904762D01*
X173476191Y-147952381D01*
X173095238Y-147952381D01*
X173095238Y-146952381D01*
X173428572Y-146952381D01*
X173523810Y-147000000D01*
X173571429Y-147047619D01*
X173619048Y-147142857D01*
X173619048Y-147238095D01*
X173571429Y-147333333D01*
X173523810Y-147380952D01*
X173428572Y-147428571D01*
X173095238Y-147428571D01*
X174523810Y-147952381D02*
X174523810Y-147428571D01*
X174476191Y-147333333D01*
X174380953Y-147285714D01*
X174190476Y-147285714D01*
X174095238Y-147333333D01*
X174523810Y-147904762D02*
X174428572Y-147952381D01*
X174190476Y-147952381D01*
X174095238Y-147904762D01*
X174047619Y-147809524D01*
X174047619Y-147714286D01*
X174095238Y-147619048D01*
X174190476Y-147571429D01*
X174428572Y-147571429D01*
X174523810Y-147523810D01*
X175428572Y-147904762D02*
X175333334Y-147952381D01*
X175142857Y-147952381D01*
X175047619Y-147904762D01*
X175000000Y-147857143D01*
X174952381Y-147761905D01*
X174952381Y-147476190D01*
X175000000Y-147380952D01*
X175047619Y-147333333D01*
X175142857Y-147285714D01*
X175333334Y-147285714D01*
X175428572Y-147333333D01*
X175857143Y-147952381D02*
X175857143Y-146952381D01*
X175952381Y-147571429D02*
X176238096Y-147952381D01*
X176238096Y-147285714D02*
X175857143Y-147666667D01*
X176809524Y-147952381D02*
X176714286Y-147904762D01*
X176666667Y-147809524D01*
X176666667Y-146952381D01*
X177619049Y-147285714D02*
X177619049Y-147952381D01*
X177190477Y-147285714D02*
X177190477Y-147809524D01*
X177238096Y-147904762D01*
X177333334Y-147952381D01*
X177476192Y-147952381D01*
X177571430Y-147904762D01*
X177619049Y-147857143D01*
X178095239Y-147285714D02*
X178095239Y-147952381D01*
X178095239Y-147380952D02*
X178142858Y-147333333D01*
X178238096Y-147285714D01*
X178380954Y-147285714D01*
X178476192Y-147333333D01*
X178523811Y-147428571D01*
X178523811Y-147952381D01*
X179428573Y-147952381D02*
X179428573Y-146952381D01*
X179428573Y-147904762D02*
X179333335Y-147952381D01*
X179142858Y-147952381D01*
X179047620Y-147904762D01*
X179000001Y-147857143D01*
X178952382Y-147761905D01*
X178952382Y-147476190D01*
X179000001Y-147380952D01*
X179047620Y-147333333D01*
X179142858Y-147285714D01*
X179333335Y-147285714D01*
X179428573Y-147333333D01*
D12*
X152821429Y-141214287D02*
X152821429Y-140500001D01*
X152107143Y-140428572D01*
X152178571Y-140500001D01*
X152250000Y-140642858D01*
X152250000Y-141000001D01*
X152178571Y-141142858D01*
X152107143Y-141214287D01*
X151964286Y-141285715D01*
X151607143Y-141285715D01*
X151464286Y-141214287D01*
X151392857Y-141142858D01*
X151321429Y-141000001D01*
X151321429Y-140642858D01*
X151392857Y-140500001D01*
X151464286Y-140428572D01*
X152821429Y-141714286D02*
X151321429Y-142214286D01*
X152821429Y-142714286D01*
X152821429Y-134785715D02*
X152821429Y-135714286D01*
X152250000Y-135214286D01*
X152250000Y-135428572D01*
X152178571Y-135571429D01*
X152107143Y-135642858D01*
X151964286Y-135714286D01*
X151607143Y-135714286D01*
X151464286Y-135642858D01*
X151392857Y-135571429D01*
X151321429Y-135428572D01*
X151321429Y-135000000D01*
X151392857Y-134857143D01*
X151464286Y-134785715D01*
X151464286Y-136357143D02*
X151392857Y-136428571D01*
X151321429Y-136357143D01*
X151392857Y-136285714D01*
X151464286Y-136357143D01*
X151321429Y-136357143D01*
X152821429Y-136928572D02*
X152821429Y-137857143D01*
X152250000Y-137357143D01*
X152250000Y-137571429D01*
X152178571Y-137714286D01*
X152107143Y-137785715D01*
X151964286Y-137857143D01*
X151607143Y-137857143D01*
X151464286Y-137785715D01*
X151392857Y-137714286D01*
X151321429Y-137571429D01*
X151321429Y-137142857D01*
X151392857Y-137000000D01*
X151464286Y-136928572D01*
X152821429Y-138285714D02*
X151321429Y-138785714D01*
X152821429Y-139285714D01*
X151892857Y-129571429D02*
X151892857Y-130714286D01*
X152821429Y-132142858D02*
X152821429Y-131428572D01*
X152107143Y-131357143D01*
X152178571Y-131428572D01*
X152250000Y-131571429D01*
X152250000Y-131928572D01*
X152178571Y-132071429D01*
X152107143Y-132142858D01*
X151964286Y-132214286D01*
X151607143Y-132214286D01*
X151464286Y-132142858D01*
X151392857Y-132071429D01*
X151321429Y-131928572D01*
X151321429Y-131571429D01*
X151392857Y-131428572D01*
X151464286Y-131357143D01*
X152821429Y-132642857D02*
X151321429Y-133142857D01*
X152821429Y-133642857D01*
X187178571Y-111285713D02*
X187178571Y-111999999D01*
X187892857Y-112071428D01*
X187821429Y-111999999D01*
X187750000Y-111857142D01*
X187750000Y-111499999D01*
X187821429Y-111357142D01*
X187892857Y-111285713D01*
X188035714Y-111214285D01*
X188392857Y-111214285D01*
X188535714Y-111285713D01*
X188607143Y-111357142D01*
X188678571Y-111499999D01*
X188678571Y-111857142D01*
X188607143Y-111999999D01*
X188535714Y-112071428D01*
X187178571Y-110785714D02*
X188678571Y-110285714D01*
X187178571Y-109785714D01*
X187178571Y-117714285D02*
X187178571Y-116785714D01*
X187750000Y-117285714D01*
X187750000Y-117071428D01*
X187821429Y-116928571D01*
X187892857Y-116857142D01*
X188035714Y-116785714D01*
X188392857Y-116785714D01*
X188535714Y-116857142D01*
X188607143Y-116928571D01*
X188678571Y-117071428D01*
X188678571Y-117500000D01*
X188607143Y-117642857D01*
X188535714Y-117714285D01*
X188535714Y-116142857D02*
X188607143Y-116071429D01*
X188678571Y-116142857D01*
X188607143Y-116214286D01*
X188535714Y-116142857D01*
X188678571Y-116142857D01*
X187178571Y-115571428D02*
X187178571Y-114642857D01*
X187750000Y-115142857D01*
X187750000Y-114928571D01*
X187821429Y-114785714D01*
X187892857Y-114714285D01*
X188035714Y-114642857D01*
X188392857Y-114642857D01*
X188535714Y-114714285D01*
X188607143Y-114785714D01*
X188678571Y-114928571D01*
X188678571Y-115357143D01*
X188607143Y-115500000D01*
X188535714Y-115571428D01*
X187178571Y-114214286D02*
X188678571Y-113714286D01*
X187178571Y-113214286D01*
X188107143Y-127928571D02*
X188107143Y-126785714D01*
X187178571Y-125357142D02*
X187178571Y-126071428D01*
X187892857Y-126142857D01*
X187821429Y-126071428D01*
X187750000Y-125928571D01*
X187750000Y-125571428D01*
X187821429Y-125428571D01*
X187892857Y-125357142D01*
X188035714Y-125285714D01*
X188392857Y-125285714D01*
X188535714Y-125357142D01*
X188607143Y-125428571D01*
X188678571Y-125571428D01*
X188678571Y-125928571D01*
X188607143Y-126071428D01*
X188535714Y-126142857D01*
X187178571Y-124857143D02*
X188678571Y-124357143D01*
X187178571Y-123857143D01*
X187250000Y-122142857D02*
X187178571Y-122285714D01*
X187178571Y-122500000D01*
X187250000Y-122714285D01*
X187392857Y-122857143D01*
X187535714Y-122928571D01*
X187821429Y-123000000D01*
X188035714Y-123000000D01*
X188321429Y-122928571D01*
X188464286Y-122857143D01*
X188607143Y-122714285D01*
X188678571Y-122500000D01*
X188678571Y-122357143D01*
X188607143Y-122142857D01*
X188535714Y-122071428D01*
X188035714Y-122071428D01*
X188035714Y-122357143D01*
X188678571Y-121428571D02*
X187178571Y-121428571D01*
X188678571Y-120571428D01*
X187178571Y-120571428D01*
X188678571Y-119857142D02*
X187178571Y-119857142D01*
X187178571Y-119499999D01*
X187250000Y-119285714D01*
X187392857Y-119142856D01*
X187535714Y-119071428D01*
X187821429Y-118999999D01*
X188035714Y-118999999D01*
X188321429Y-119071428D01*
X188464286Y-119142856D01*
X188607143Y-119285714D01*
X188678571Y-119499999D01*
X188678571Y-119857142D01*
D11*
X171660000Y-143675000D02*
X169660000Y-143675000D01*
X169660000Y-145725000D02*
X171660000Y-145725000D01*
X168970000Y-133770000D02*
X168970000Y-132770000D01*
X167270000Y-132770000D02*
X167270000Y-133770000D01*
X169840000Y-102860000D02*
X168840000Y-102860000D01*
X168840000Y-104560000D02*
X169840000Y-104560000D01*
X173500000Y-125150000D02*
X172500000Y-125150000D01*
X172500000Y-126850000D02*
X173500000Y-126850000D01*
X175150000Y-109500000D02*
X175150000Y-110500000D01*
X176850000Y-110500000D02*
X176850000Y-109500000D01*
X173000000Y-120975000D02*
X171000000Y-120975000D01*
X171000000Y-123025000D02*
X173000000Y-123025000D01*
X147888000Y-106682000D02*
X147126000Y-106682000D01*
X147126000Y-106682000D02*
X147126000Y-115318000D01*
X147126000Y-115318000D02*
X147888000Y-115318000D01*
X150936000Y-106682000D02*
X150936000Y-115318000D01*
X160588000Y-106682000D02*
X160588000Y-115318000D01*
X147888000Y-115318000D02*
X160588000Y-115318000D01*
X147888000Y-106682000D02*
X160588000Y-106682000D01*
X155000000Y-141850000D02*
X156000000Y-141850000D01*
X156000000Y-140150000D02*
X155000000Y-140150000D01*
X155000000Y-137850000D02*
X156000000Y-137850000D01*
X156000000Y-136150000D02*
X155000000Y-136150000D01*
X156000000Y-132150000D02*
X155000000Y-132150000D01*
X155000000Y-133850000D02*
X156000000Y-133850000D01*
X173517500Y-134540000D02*
X173898500Y-134540000D01*
X172501500Y-134540000D02*
X172882500Y-134540000D01*
X172882500Y-134540000D02*
X173517500Y-134159000D01*
X173517500Y-134159000D02*
X173517500Y-134921000D01*
X173517500Y-134921000D02*
X172882500Y-134540000D01*
X172882500Y-134032000D02*
X172882500Y-135048000D01*
X171200000Y-135440000D02*
X174740000Y-135440000D01*
X171200000Y-133640000D02*
X174740000Y-133640000D01*
X168970000Y-140120000D02*
X168970000Y-139120000D01*
X167270000Y-139120000D02*
X167270000Y-140120000D01*
X167270000Y-126420000D02*
X167270000Y-127420000D01*
X168970000Y-127420000D02*
X168970000Y-126420000D01*
X181730000Y-133270000D02*
X181730000Y-140890000D01*
X181730000Y-140890000D02*
X186810000Y-140890000D01*
X186810000Y-140890000D02*
X186810000Y-130730000D01*
X186810000Y-130730000D02*
X184270000Y-130730000D01*
X183000000Y-130450000D02*
X181450000Y-130450000D01*
X184270000Y-130730000D02*
X184270000Y-133270000D01*
X184270000Y-133270000D02*
X181730000Y-133270000D01*
X181450000Y-130450000D02*
X181450000Y-132000000D01*
X160900000Y-140125000D02*
X162100000Y-140125000D01*
X162100000Y-141875000D02*
X160900000Y-141875000D01*
X160900000Y-136125000D02*
X162100000Y-136125000D01*
X162100000Y-137875000D02*
X160900000Y-137875000D01*
X160900000Y-132125000D02*
X162100000Y-132125000D01*
X162100000Y-133875000D02*
X160900000Y-133875000D01*
X173600000Y-130875000D02*
X172400000Y-130875000D01*
X172400000Y-129125000D02*
X173600000Y-129125000D01*
X177125000Y-132600000D02*
X177125000Y-131400000D01*
X178875000Y-131400000D02*
X178875000Y-132600000D01*
X171600000Y-139920000D02*
G75*
G03X171600000Y-139920000I-100000J0D01*
G01*
X171750000Y-139370000D02*
X171750000Y-139870000D01*
X174650000Y-139370000D02*
X171750000Y-139370000D01*
X174650000Y-139870000D02*
X174650000Y-139370000D01*
X171750000Y-139870000D02*
X174650000Y-139870000D01*
X186800000Y-124100000D02*
X186800000Y-126100000D01*
X186800000Y-119400000D02*
X186800000Y-121400000D01*
X186800000Y-114600000D02*
X186800000Y-116600000D01*
X186800000Y-109900000D02*
X186800000Y-111900000D01*
X187000000Y-127600000D02*
X180000000Y-127600000D01*
X187000000Y-108400000D02*
X180000000Y-108400000D01*
X187000000Y-108400000D02*
X187000000Y-127600000D01*
X180000000Y-108400000D02*
X180000000Y-127600000D01*
X153100000Y-119400000D02*
X153100000Y-128600000D01*
X162900000Y-119400000D02*
X162900000Y-128600000D01*
X153100000Y-128600000D02*
X162900000Y-128600000D01*
X153100000Y-119400000D02*
X162900000Y-119400000D01*
X176850000Y-116500000D02*
X176850000Y-115500000D01*
X175150000Y-115500000D02*
X175150000Y-116500000D01*
X170493334Y-142757143D02*
X170445715Y-142804762D01*
X170302858Y-142852381D01*
X170207620Y-142852381D01*
X170064762Y-142804762D01*
X169969524Y-142709524D01*
X169921905Y-142614286D01*
X169874286Y-142423810D01*
X169874286Y-142280952D01*
X169921905Y-142090476D01*
X169969524Y-141995238D01*
X170064762Y-141900000D01*
X170207620Y-141852381D01*
X170302858Y-141852381D01*
X170445715Y-141900000D01*
X170493334Y-141947619D01*
X171445715Y-142852381D02*
X170874286Y-142852381D01*
X171160000Y-142852381D02*
X171160000Y-141852381D01*
X171064762Y-141995238D01*
X170969524Y-142090476D01*
X170874286Y-142138095D01*
X170577143Y-133436666D02*
X170624762Y-133484285D01*
X170672381Y-133627142D01*
X170672381Y-133722380D01*
X170624762Y-133865238D01*
X170529524Y-133960476D01*
X170434286Y-134008095D01*
X170243810Y-134055714D01*
X170100952Y-134055714D01*
X169910476Y-134008095D01*
X169815238Y-133960476D01*
X169720000Y-133865238D01*
X169672381Y-133722380D01*
X169672381Y-133627142D01*
X169720000Y-133484285D01*
X169767619Y-133436666D01*
X169767619Y-133055714D02*
X169720000Y-133008095D01*
X169672381Y-132912857D01*
X169672381Y-132674761D01*
X169720000Y-132579523D01*
X169767619Y-132531904D01*
X169862857Y-132484285D01*
X169958095Y-132484285D01*
X170100952Y-132531904D01*
X170672381Y-133103333D01*
X170672381Y-132484285D01*
X169173334Y-101967143D02*
X169125715Y-102014762D01*
X168982858Y-102062381D01*
X168887620Y-102062381D01*
X168744762Y-102014762D01*
X168649524Y-101919524D01*
X168601905Y-101824286D01*
X168554286Y-101633810D01*
X168554286Y-101490952D01*
X168601905Y-101300476D01*
X168649524Y-101205238D01*
X168744762Y-101110000D01*
X168887620Y-101062381D01*
X168982858Y-101062381D01*
X169125715Y-101110000D01*
X169173334Y-101157619D01*
X169506667Y-101062381D02*
X170125715Y-101062381D01*
X169792381Y-101443333D01*
X169935239Y-101443333D01*
X170030477Y-101490952D01*
X170078096Y-101538571D01*
X170125715Y-101633810D01*
X170125715Y-101871905D01*
X170078096Y-101967143D01*
X170030477Y-102014762D01*
X169935239Y-102062381D01*
X169649524Y-102062381D01*
X169554286Y-102014762D01*
X169506667Y-101967143D01*
X172833334Y-124257143D02*
X172785715Y-124304762D01*
X172642858Y-124352381D01*
X172547620Y-124352381D01*
X172404762Y-124304762D01*
X172309524Y-124209524D01*
X172261905Y-124114286D01*
X172214286Y-123923810D01*
X172214286Y-123780952D01*
X172261905Y-123590476D01*
X172309524Y-123495238D01*
X172404762Y-123400000D01*
X172547620Y-123352381D01*
X172642858Y-123352381D01*
X172785715Y-123400000D01*
X172833334Y-123447619D01*
X173690477Y-123685714D02*
X173690477Y-124352381D01*
X173452381Y-123304762D02*
X173214286Y-124019048D01*
X173833334Y-124019048D01*
X174357143Y-110166666D02*
X174404762Y-110214285D01*
X174452381Y-110357142D01*
X174452381Y-110452380D01*
X174404762Y-110595238D01*
X174309524Y-110690476D01*
X174214286Y-110738095D01*
X174023810Y-110785714D01*
X173880952Y-110785714D01*
X173690476Y-110738095D01*
X173595238Y-110690476D01*
X173500000Y-110595238D01*
X173452381Y-110452380D01*
X173452381Y-110357142D01*
X173500000Y-110214285D01*
X173547619Y-110166666D01*
X173452381Y-109261904D02*
X173452381Y-109738095D01*
X173928571Y-109785714D01*
X173880952Y-109738095D01*
X173833333Y-109642857D01*
X173833333Y-109404761D01*
X173880952Y-109309523D01*
X173928571Y-109261904D01*
X174023810Y-109214285D01*
X174261905Y-109214285D01*
X174357143Y-109261904D01*
X174404762Y-109309523D01*
X174452381Y-109404761D01*
X174452381Y-109642857D01*
X174404762Y-109738095D01*
X174357143Y-109785714D01*
X171833334Y-120057143D02*
X171785715Y-120104762D01*
X171642858Y-120152381D01*
X171547620Y-120152381D01*
X171404762Y-120104762D01*
X171309524Y-120009524D01*
X171261905Y-119914286D01*
X171214286Y-119723810D01*
X171214286Y-119580952D01*
X171261905Y-119390476D01*
X171309524Y-119295238D01*
X171404762Y-119200000D01*
X171547620Y-119152381D01*
X171642858Y-119152381D01*
X171785715Y-119200000D01*
X171833334Y-119247619D01*
X172690477Y-119152381D02*
X172500000Y-119152381D01*
X172404762Y-119200000D01*
X172357143Y-119247619D01*
X172261905Y-119390476D01*
X172214286Y-119580952D01*
X172214286Y-119961905D01*
X172261905Y-120057143D01*
X172309524Y-120104762D01*
X172404762Y-120152381D01*
X172595239Y-120152381D01*
X172690477Y-120104762D01*
X172738096Y-120057143D01*
X172785715Y-119961905D01*
X172785715Y-119723810D01*
X172738096Y-119628571D01*
X172690477Y-119580952D01*
X172595239Y-119533333D01*
X172404762Y-119533333D01*
X172309524Y-119580952D01*
X172261905Y-119628571D01*
X172214286Y-119723810D01*
X154039715Y-105769143D02*
X153992096Y-105816762D01*
X153849239Y-105864381D01*
X153754001Y-105864381D01*
X153611143Y-105816762D01*
X153515905Y-105721524D01*
X153468286Y-105626286D01*
X153420667Y-105435810D01*
X153420667Y-105292952D01*
X153468286Y-105102476D01*
X153515905Y-105007238D01*
X153611143Y-104912000D01*
X153754001Y-104864381D01*
X153849239Y-104864381D01*
X153992096Y-104912000D01*
X154039715Y-104959619D01*
X154658762Y-104864381D02*
X154849239Y-104864381D01*
X154944477Y-104912000D01*
X155039715Y-105007238D01*
X155087334Y-105197714D01*
X155087334Y-105531048D01*
X155039715Y-105721524D01*
X154944477Y-105816762D01*
X154849239Y-105864381D01*
X154658762Y-105864381D01*
X154563524Y-105816762D01*
X154468286Y-105721524D01*
X154420667Y-105531048D01*
X154420667Y-105197714D01*
X154468286Y-105007238D01*
X154563524Y-104912000D01*
X154658762Y-104864381D01*
X155515905Y-105864381D02*
X155515905Y-104864381D01*
X156087334Y-105864381D01*
X156087334Y-104864381D01*
X157087334Y-105864381D02*
X156515905Y-105864381D01*
X156801619Y-105864381D02*
X156801619Y-104864381D01*
X156706381Y-105007238D01*
X156611143Y-105102476D01*
X156515905Y-105150095D01*
X154761905Y-143552381D02*
X154761905Y-142552381D01*
X155000000Y-142552381D01*
X155142858Y-142600000D01*
X155238096Y-142695238D01*
X155285715Y-142790476D01*
X155333334Y-142980952D01*
X155333334Y-143123810D01*
X155285715Y-143314286D01*
X155238096Y-143409524D01*
X155142858Y-143504762D01*
X155000000Y-143552381D01*
X154761905Y-143552381D01*
X156285715Y-143552381D02*
X155714286Y-143552381D01*
X156000000Y-143552381D02*
X156000000Y-142552381D01*
X155904762Y-142695238D01*
X155809524Y-142790476D01*
X155714286Y-142838095D01*
X154761905Y-139552381D02*
X154761905Y-138552381D01*
X155000000Y-138552381D01*
X155142858Y-138600000D01*
X155238096Y-138695238D01*
X155285715Y-138790476D01*
X155333334Y-138980952D01*
X155333334Y-139123810D01*
X155285715Y-139314286D01*
X155238096Y-139409524D01*
X155142858Y-139504762D01*
X155000000Y-139552381D01*
X154761905Y-139552381D01*
X155714286Y-138647619D02*
X155761905Y-138600000D01*
X155857143Y-138552381D01*
X156095239Y-138552381D01*
X156190477Y-138600000D01*
X156238096Y-138647619D01*
X156285715Y-138742857D01*
X156285715Y-138838095D01*
X156238096Y-138980952D01*
X155666667Y-139552381D01*
X156285715Y-139552381D01*
X154761905Y-131352381D02*
X154761905Y-130352381D01*
X155000000Y-130352381D01*
X155142858Y-130400000D01*
X155238096Y-130495238D01*
X155285715Y-130590476D01*
X155333334Y-130780952D01*
X155333334Y-130923810D01*
X155285715Y-131114286D01*
X155238096Y-131209524D01*
X155142858Y-131304762D01*
X155000000Y-131352381D01*
X154761905Y-131352381D01*
X155666667Y-130352381D02*
X156285715Y-130352381D01*
X155952381Y-130733333D01*
X156095239Y-130733333D01*
X156190477Y-130780952D01*
X156238096Y-130828571D01*
X156285715Y-130923810D01*
X156285715Y-131161905D01*
X156238096Y-131257143D01*
X156190477Y-131304762D01*
X156095239Y-131352381D01*
X155809524Y-131352381D01*
X155714286Y-131304762D01*
X155666667Y-131257143D01*
X172461905Y-132992381D02*
X172461905Y-131992381D01*
X172700000Y-131992381D01*
X172842858Y-132040000D01*
X172938096Y-132135238D01*
X172985715Y-132230476D01*
X173033334Y-132420952D01*
X173033334Y-132563810D01*
X172985715Y-132754286D01*
X172938096Y-132849524D01*
X172842858Y-132944762D01*
X172700000Y-132992381D01*
X172461905Y-132992381D01*
X173890477Y-132325714D02*
X173890477Y-132992381D01*
X173652381Y-131944762D02*
X173414286Y-132659048D01*
X174033334Y-132659048D01*
X170672381Y-139786666D02*
X170672381Y-140262857D01*
X169672381Y-140262857D01*
X170672381Y-138929523D02*
X170672381Y-139500952D01*
X170672381Y-139215238D02*
X169672381Y-139215238D01*
X169815238Y-139310476D01*
X169910476Y-139405714D01*
X169958095Y-139500952D01*
X166472381Y-127086666D02*
X166472381Y-127562857D01*
X165472381Y-127562857D01*
X165567619Y-126800952D02*
X165520000Y-126753333D01*
X165472381Y-126658095D01*
X165472381Y-126419999D01*
X165520000Y-126324761D01*
X165567619Y-126277142D01*
X165662857Y-126229523D01*
X165758095Y-126229523D01*
X165900952Y-126277142D01*
X166472381Y-126848571D01*
X166472381Y-126229523D01*
X182261905Y-127352381D02*
X182261905Y-126352381D01*
X182642858Y-126352381D01*
X182738096Y-126400000D01*
X182785715Y-126447619D01*
X182833334Y-126542857D01*
X182833334Y-126685714D01*
X182785715Y-126780952D01*
X182738096Y-126828571D01*
X182642858Y-126876190D01*
X182261905Y-126876190D01*
X183214286Y-126447619D02*
X183261905Y-126400000D01*
X183357143Y-126352381D01*
X183595239Y-126352381D01*
X183690477Y-126400000D01*
X183738096Y-126447619D01*
X183785715Y-126542857D01*
X183785715Y-126638095D01*
X183738096Y-126780952D01*
X183166667Y-127352381D01*
X183785715Y-127352381D01*
X161333334Y-143552381D02*
X161000000Y-143076190D01*
X160761905Y-143552381D02*
X160761905Y-142552381D01*
X161142858Y-142552381D01*
X161238096Y-142600000D01*
X161285715Y-142647619D01*
X161333334Y-142742857D01*
X161333334Y-142885714D01*
X161285715Y-142980952D01*
X161238096Y-143028571D01*
X161142858Y-143076190D01*
X160761905Y-143076190D01*
X162285715Y-143552381D02*
X161714286Y-143552381D01*
X162000000Y-143552381D02*
X162000000Y-142552381D01*
X161904762Y-142695238D01*
X161809524Y-142790476D01*
X161714286Y-142838095D01*
X161333334Y-139552381D02*
X161000000Y-139076190D01*
X160761905Y-139552381D02*
X160761905Y-138552381D01*
X161142858Y-138552381D01*
X161238096Y-138600000D01*
X161285715Y-138647619D01*
X161333334Y-138742857D01*
X161333334Y-138885714D01*
X161285715Y-138980952D01*
X161238096Y-139028571D01*
X161142858Y-139076190D01*
X160761905Y-139076190D01*
X161714286Y-138647619D02*
X161761905Y-138600000D01*
X161857143Y-138552381D01*
X162095239Y-138552381D01*
X162190477Y-138600000D01*
X162238096Y-138647619D01*
X162285715Y-138742857D01*
X162285715Y-138838095D01*
X162238096Y-138980952D01*
X161666667Y-139552381D01*
X162285715Y-139552381D01*
X161333334Y-135552381D02*
X161000000Y-135076190D01*
X160761905Y-135552381D02*
X160761905Y-134552381D01*
X161142858Y-134552381D01*
X161238096Y-134600000D01*
X161285715Y-134647619D01*
X161333334Y-134742857D01*
X161333334Y-134885714D01*
X161285715Y-134980952D01*
X161238096Y-135028571D01*
X161142858Y-135076190D01*
X160761905Y-135076190D01*
X161666667Y-134552381D02*
X162285715Y-134552381D01*
X161952381Y-134933333D01*
X162095239Y-134933333D01*
X162190477Y-134980952D01*
X162238096Y-135028571D01*
X162285715Y-135123810D01*
X162285715Y-135361905D01*
X162238096Y-135457143D01*
X162190477Y-135504762D01*
X162095239Y-135552381D01*
X161809524Y-135552381D01*
X161714286Y-135504762D01*
X161666667Y-135457143D01*
X172833334Y-128352381D02*
X172500000Y-127876190D01*
X172261905Y-128352381D02*
X172261905Y-127352381D01*
X172642858Y-127352381D01*
X172738096Y-127400000D01*
X172785715Y-127447619D01*
X172833334Y-127542857D01*
X172833334Y-127685714D01*
X172785715Y-127780952D01*
X172738096Y-127828571D01*
X172642858Y-127876190D01*
X172261905Y-127876190D01*
X173690477Y-127685714D02*
X173690477Y-128352381D01*
X173452381Y-127304762D02*
X173214286Y-128019048D01*
X173833334Y-128019048D01*
X180552381Y-132166666D02*
X180076190Y-132500000D01*
X180552381Y-132738095D02*
X179552381Y-132738095D01*
X179552381Y-132357142D01*
X179600000Y-132261904D01*
X179647619Y-132214285D01*
X179742857Y-132166666D01*
X179885714Y-132166666D01*
X179980952Y-132214285D01*
X180028571Y-132261904D01*
X180076190Y-132357142D01*
X180076190Y-132738095D01*
X179552381Y-131261904D02*
X179552381Y-131738095D01*
X180028571Y-131785714D01*
X179980952Y-131738095D01*
X179933333Y-131642857D01*
X179933333Y-131404761D01*
X179980952Y-131309523D01*
X180028571Y-131261904D01*
X180123810Y-131214285D01*
X180361905Y-131214285D01*
X180457143Y-131261904D01*
X180504762Y-131309523D01*
X180552381Y-131404761D01*
X180552381Y-131642857D01*
X180504762Y-131738095D01*
X180457143Y-131785714D01*
X175452381Y-140761905D02*
X176261905Y-140761905D01*
X176357143Y-140714286D01*
X176404762Y-140666667D01*
X176452381Y-140571429D01*
X176452381Y-140380952D01*
X176404762Y-140285714D01*
X176357143Y-140238095D01*
X176261905Y-140190476D01*
X175452381Y-140190476D01*
X176452381Y-139190476D02*
X176452381Y-139761905D01*
X176452381Y-139476191D02*
X175452381Y-139476191D01*
X175595238Y-139571429D01*
X175690476Y-139666667D01*
X175738095Y-139761905D01*
X168578095Y-105067381D02*
X168578095Y-105876905D01*
X168625714Y-105972143D01*
X168673333Y-106019762D01*
X168768571Y-106067381D01*
X168959048Y-106067381D01*
X169054286Y-106019762D01*
X169101905Y-105972143D01*
X169149524Y-105876905D01*
X169149524Y-105067381D01*
X169578095Y-105162619D02*
X169625714Y-105115000D01*
X169720952Y-105067381D01*
X169959048Y-105067381D01*
X170054286Y-105115000D01*
X170101905Y-105162619D01*
X170149524Y-105257857D01*
X170149524Y-105353095D01*
X170101905Y-105495952D01*
X169530476Y-106067381D01*
X170149524Y-106067381D01*
X179478571Y-119007142D02*
X177978571Y-119007142D01*
X177978571Y-118435714D01*
X178050000Y-118292856D01*
X178121429Y-118221428D01*
X178264286Y-118149999D01*
X178478571Y-118149999D01*
X178621429Y-118221428D01*
X178692857Y-118292856D01*
X178764286Y-118435714D01*
X178764286Y-119007142D01*
X179478571Y-116721428D02*
X179478571Y-117578571D01*
X179478571Y-117149999D02*
X177978571Y-117149999D01*
X178192857Y-117292856D01*
X178335714Y-117435714D01*
X178407143Y-117578571D01*
X164607143Y-126000000D02*
X164678571Y-125785714D01*
X164678571Y-125428571D01*
X164607143Y-125285714D01*
X164535714Y-125214285D01*
X164392857Y-125142857D01*
X164250000Y-125142857D01*
X164107143Y-125214285D01*
X164035714Y-125285714D01*
X163964286Y-125428571D01*
X163892857Y-125714285D01*
X163821429Y-125857143D01*
X163750000Y-125928571D01*
X163607143Y-126000000D01*
X163464286Y-126000000D01*
X163321429Y-125928571D01*
X163250000Y-125857143D01*
X163178571Y-125714285D01*
X163178571Y-125357143D01*
X163250000Y-125142857D01*
X163178571Y-124642857D02*
X164678571Y-124285714D01*
X163607143Y-124000000D01*
X164678571Y-123714286D01*
X163178571Y-123357143D01*
X164678571Y-122000000D02*
X164678571Y-122857143D01*
X164678571Y-122428571D02*
X163178571Y-122428571D01*
X163392857Y-122571428D01*
X163535714Y-122714286D01*
X163607143Y-122857143D01*
X174357143Y-116166666D02*
X174404762Y-116214285D01*
X174452381Y-116357142D01*
X174452381Y-116452380D01*
X174404762Y-116595238D01*
X174309524Y-116690476D01*
X174214286Y-116738095D01*
X174023810Y-116785714D01*
X173880952Y-116785714D01*
X173690476Y-116738095D01*
X173595238Y-116690476D01*
X173500000Y-116595238D01*
X173452381Y-116452380D01*
X173452381Y-116357142D01*
X173500000Y-116214285D01*
X173547619Y-116166666D01*
X173452381Y-115833333D02*
X173452381Y-115166666D01*
X174452381Y-115595238D01*
M02*
