M48
INCH,TZ
T1C0.025
T2C0.035
T3C0.039
T4C0.040
T5C0.138
%
G90
G05
T1
X60591Y-53307
X60591Y-54882
X60728Y-51834
X67295Y-57000
X67575Y-43414
X68134Y-55904
X68504Y-48629
X68759Y-46188
X68761Y-42867
X68833Y-53486
X70079Y-53080
T2
X61220Y-47638
X61220Y-50000
X62205Y-47638
X62205Y-50000
X63189Y-47638
X63189Y-50000
T3
X72441Y-43504
X72441Y-45472
X72441Y-47441
X72441Y-49409
T4
X72047Y-51969
X72047Y-52969
X72047Y-53969
X72047Y-54969
X73047Y-51969
X73047Y-52969
X73047Y-53969
X73047Y-54969
T5
X60630Y-40551
X60630Y-57874
X73228Y-40551
X73228Y-57874
T4
X61063Y-43381G85X61063Y-43981
G05
X61663Y-45681G85X62263Y-45681
G05
X63463Y-43381G85X63463Y-43981
G05
T0
M30
